<svg width="1700" height="661" viewBox="0 0 1700 661" fill="none" xmlns="http://www.w3.org/2000/svg">
<path d="M425 702V297.824L447.394 294.906L462.564 286.88L483.513 259.887L514.575 203.711L547.082 173.799L568.031 159.937L609.929 150.453H653.272L674.943 155.56L706.006 169.421L729.122 184.013L754.405 201.522L770.297 211.006L796.303 217.572H814.363L832.422 209.547L897.436 162.855L953.782 117.623L1011.57 75.3082L1022.41 65.8239L1065.03 46.1258L1086.7 39.5597L1114.87 32.2642L1127.15 27.8868H1144.49H1171.22L1194.33 32.9937L1222.51 43.9371L1249.96 59.2579L1278.13 72.3899L1306.3 76.0377L1332.31 66.5535L1352.54 51.2327L1372.76 32.9937L1400.21 11.1069L1422.61 6H1454.39L1489.07 22.0503L1520.13 36.6415L1554.8 43.9371H1579.36L1601.03 36.6415L1631.37 22.0503L1651.6 14.7547H1676.88L1700 28.6164V702H425Z" fill="url(#paint0_linear_157_2869)"/>
<path d="M425 806V298L406.6 310.7L377 364.488L370.6 395.865L362.6 428.735L344.2 449.653L324.2 472.812L303.4 484.018L261.8 498.959L219.4 504.935H181.8L145 495.224L103.4 486.259L60.2 484.765L1 499.706V806H425Z" fill="url(#paint1_linear_157_2869)"/>
<path d="M425.116 300.751C435 300.5 442.046 298.24 450.292 294.489C457.926 290.904 464.802 285.89 470.55 279.719C482.883 266.744 490.983 250.281 499.244 234.621C508.22 217.735 517.662 200.732 531.352 187.086C547.932 170.477 570.554 159.939 593.104 154.247C617.826 148.051 643.655 147.716 668.53 153.269C693.94 158.975 715.234 171.483 736.119 186.589C755.472 200.6 776.532 217.238 801.373 218.698C829.555 220.347 855.272 199.141 876.799 183.495C923.766 149.358 965.974 108.929 1014.65 77.098C1059.53 47.7476 1112.83 26.016 1167.3 28.0447C1194.3 29.0809 1219.12 36.9915 1242.66 50.0247C1265.08 62.4304 1289.12 78.8059 1316.05 75.5658C1359.92 70.2824 1380.26 20.7183 1420.88 7.87481C1464.86 -6.01954 1506.92 28.2347 1546.95 40.6841C1570.61 47.9816 1592.74 46.96 1615.14 36.0284C1637.18 25.2574 1651.62 14.0448 1677.5 18C1687.54 19.4595 1690 29.5 1700 29.5" stroke="url(#paint2_linear_157_2869)" stroke-width="8.27531" stroke-miterlimit="10"/>
<path d="M0 498.996C18 498.996 39.0358 486.991 64.8698 485.436C81.6801 484.424 91.7396 485.949 108.5 487.5C142.21 490.619 163.835 503.356 192.566 504.85C243.645 506.343 294.733 498.747 337.821 460.049C378.989 423.076 371.341 374.929 392.092 333.116C396.881 322.662 413.5 301 425.5 301" stroke="url(#paint3_linear_157_2869)" stroke-width="8.45591" stroke-miterlimit="10"/>
<defs>
<linearGradient id="paint0_linear_157_2869" x1="1062.14" y1="-277.069" x2="1227" y2="383.882" gradientUnits="userSpaceOnUse">
<stop stop-color="#28CD41"/>
<stop offset="1" stop-color="#E0FFE4" stop-opacity="0"/>
</linearGradient>
<linearGradient id="paint1_linear_157_2869" x1="62.6" y1="85.0882" x2="50.9743" y2="567.614" gradientUnits="userSpaceOnUse">
<stop stop-color="#FF0000"/>
<stop offset="1" stop-color="#FF0000" stop-opacity="0"/>
</linearGradient>
<linearGradient id="paint2_linear_157_2869" x1="424.999" y1="301.13" x2="1951.63" y2="-59.3644" gradientUnits="userSpaceOnUse">
<stop stop-color="#28CD41"/>
<stop offset="1" stop-color="#146721"/>
</linearGradient>
<linearGradient id="paint3_linear_157_2869" x1="34.5258" y1="504.61" x2="407.353" y2="319.084" gradientUnits="userSpaceOnUse">
<stop stop-color="#990000"/>
<stop offset="1" stop-color="#FF0000"/>
</linearGradient>
</defs>
</svg>
