<svg width="497" height="280" viewBox="0 0 497 280" fill="none" xmlns="http://www.w3.org/2000/svg">
<path d="M96.0286 226.668C20.3679 208.733 54.796 126.042 108.511 85.8912C137.577 64.1257 153.394 54.7076 179.891 42.811C206.027 31.0946 210.939 43.0363 210.939 43.0363C210.939 43.0363 282.995 16.5843 354.285 33.528C430.171 51.5532 436.029 99.365 440.355 119.057C452.567 174.891 422.87 190.122 422.87 190.122C422.87 190.122 443.059 203.641 420.527 221.035C403.178 234.464 366.767 229.101 366.767 229.101C366.767 229.101 207.064 252.985 96.0286 226.668Z" fill="#F4F6F7"/>
<path d="M93.415 52.4531L114.279 208.731H361.54C364.694 208.731 367.128 205.938 366.722 202.828L347.976 58.3113C347.48 55.2921 344.911 53.084 341.847 53.0389L93.415 52.4531Z" fill="white"/>
<path d="M127.933 78.4992C127.933 78.4992 123.697 62.8623 151.636 61.2401C173.131 60.0234 171.554 73.6775 171.554 73.6775C171.554 73.6775 179.485 67.5038 188.002 71.7848C196.564 76.1109 193.68 83.7265 193.68 83.7265C193.68 83.7265 209.812 86.205 205.711 93.2798C201.566 100.445 121.849 100.445 115.54 90.3507C108.15 78.5443 127.933 78.4992 127.933 78.4992Z" fill="#FF4E13"/>
<mask id="mask0_160_3073" style="mask-type:luminance" maskUnits="userSpaceOnUse" x="96" y="52" width="271" height="157">
<path d="M96.0298 52.4531L113.469 208.731H361.541C364.695 208.731 367.129 205.938 366.723 202.828L347.977 58.3113C347.481 55.2921 344.913 53.084 341.848 53.0389L96.0298 52.4531Z" fill="white"/>
</mask>
<g mask="url(#mask0_160_3073)">
<path d="M-288.448 95.8036C-265.781 89.5849 -252.443 101.346 -208.867 103.915C-134.333 108.241 -113.919 77.3278 -44.7474 69.3967C60.6999 57.2297 93.8212 119.867 200.53 107.159C265.376 99.4086 269.477 74.3536 333.962 72.6412C386.055 71.2443 459.417 85.5743 483.165 121.76C506.823 157.81 475.099 206.343 427.648 231.849C340.811 278.534 245.278 224.503 2.47855 228.018C-187.101 230.767 -265.556 265.691 -313.323 231.263C-363.883 194.807 -339.594 109.773 -288.448 95.8036Z" fill="#FF4E13"/>
</g>
<path d="M392.273 215.672H118.11V214.32H390.561L387.992 204.316H106.979V202.964H389.074L392.273 215.672Z" fill="#020202"/>
<path d="M262.223 214.652L260.878 214.794L262.104 226.446L263.448 226.304L262.223 214.652Z" fill="#020202"/>
<path d="M221.918 215.231L220.573 215.363L222.12 231.149L223.465 231.017L221.918 215.231Z" fill="#020202"/>
<path d="M101.978 207.111L83.7723 64.6672C83.2766 60.7918 84.4933 56.9164 87.0619 54.0323C89.6305 51.1483 93.3257 49.481 97.2461 49.526L326.301 51.644V52.9959L97.2011 50.8779C93.6862 50.8329 90.3515 52.3199 88.0533 54.9336C85.71 57.5472 84.6736 61.0171 85.0791 64.4869L103.285 206.931L101.978 207.111Z" fill="#020202"/>
<path d="M408.271 170.158L400.926 170.113L400.791 117.48H393.445V110.855H364.244V136.812H362.893V109.504H394.797V116.128H402.142L402.278 168.761L406.919 168.806V141.453H436.345V159.523H434.993V142.805H408.271V170.158Z" fill="#1D1D1B"/>
<path d="M93.415 163.805H83.6814V138.976H66.918V137.624H85.0333V162.454H93.415V163.805Z" fill="#1D1D1B"/>
<path d="M212.877 169.708C220.169 169.708 226.081 163.393 226.081 155.604C226.081 147.814 220.169 141.499 212.877 141.499C205.585 141.499 199.674 147.814 199.674 155.604C199.674 163.393 205.585 169.708 212.877 169.708Z" fill="black"/>
<path d="M212.877 172.862C203.865 172.862 196.52 165.111 196.52 155.603C196.52 146.095 203.865 138.344 212.877 138.344C221.89 138.344 229.235 146.095 229.235 155.603C229.235 165.111 221.89 172.862 212.877 172.862ZM212.877 144.698C207.335 144.698 202.828 149.61 202.828 155.648C202.828 161.687 207.335 166.598 212.877 166.598C218.42 166.598 222.926 161.687 222.926 155.648C222.926 149.61 218.42 144.698 212.877 144.698Z" fill="black"/>
<path d="M299.353 169.708C306.645 169.708 312.556 163.393 312.556 155.604C312.556 147.814 306.645 141.499 299.353 141.499C292.061 141.499 286.149 147.814 286.149 155.604C286.149 163.393 292.061 169.708 299.353 169.708Z" fill="black"/>
<path d="M299.353 172.862C290.34 172.862 282.995 165.112 282.995 155.603C282.995 146.095 290.34 138.344 299.353 138.344C308.366 138.344 315.711 146.095 315.711 155.603C315.711 165.112 308.366 172.862 299.353 172.862ZM299.353 144.698C293.81 144.698 289.304 149.61 289.304 155.648C289.304 161.687 293.81 166.599 299.353 166.599C304.896 166.599 309.402 161.687 309.402 155.648C309.402 149.61 304.896 144.698 299.353 144.698Z" fill="black"/>
<path d="M338.243 164.3C338.873 163.939 339.324 163.264 339.324 162.543C339.414 160.334 340 155.693 339.549 150.15C339.144 145.013 338.197 140.462 337.657 138.254C337.431 137.352 336.936 136.541 336.215 135.955C333.691 133.882 327.067 128.79 320.262 126.042C311.565 122.482 301.651 119.237 301.651 119.237C301.651 119.237 289.349 111.396 284.573 108.557C279.841 105.718 272.631 101.527 269.386 100.806C266.142 100.13 248.207 97.2463 235.814 97.3364C223.377 97.4265 204.991 97.3364 188.498 101.122C172.005 104.907 160.244 114.1 156.143 115.677C152.042 117.254 144.562 119.237 142.624 120.544C140.686 121.896 138.298 131.089 138.478 139.605C138.659 148.077 138.659 154.747 139.74 157.45C140.777 160.154 143.976 161.461 143.976 161.461C143.976 161.461 145.058 165.967 148.392 168.851C151.727 171.735 154.746 173.358 159.027 173.177C163.308 172.997 166.102 171.78 168.58 169.888C171.059 167.995 173.042 164.435 173.042 164.435H201.431H229.19H233.381C233.381 164.435 235.499 168.266 237.707 169.843C239.915 171.42 242.664 173.222 247.351 173.222C252.037 173.222 254.921 171.51 257.354 169.527C259.743 167.545 261.23 164.435 261.23 164.435H287.952H315.756L337.116 164.525C337.522 164.57 337.882 164.48 338.243 164.3Z" fill="white"/>
<path d="M247.351 173.898C242.619 173.898 239.78 172.186 237.302 170.384C235.364 169.032 233.561 166.103 232.975 165.111H173.492C172.907 166.057 171.149 168.806 169.031 170.429C166.147 172.637 163.083 173.718 159.117 173.853C154.16 174.034 150.826 171.78 147.987 169.347C145.013 166.778 143.751 163.038 143.435 161.957C142.579 161.551 140.101 160.154 139.154 157.676C138.163 155.152 138.073 149.7 137.893 142.219L137.848 139.606C137.667 131.539 139.92 121.625 142.264 120.003C143.571 119.102 146.905 118.02 150.42 116.894C152.358 116.263 154.386 115.632 155.918 115.046C156.999 114.641 158.712 113.649 160.875 112.342C166.643 108.918 176.286 103.24 188.363 100.491C203.955 96.9309 221.079 96.7957 233.561 96.7056H235.814C248.072 96.6155 266.052 99.4544 269.522 100.175C272.766 100.851 279.435 104.727 284.933 107.971C289.439 110.675 300.93 117.975 301.922 118.606C302.868 118.922 312.286 122.076 320.488 125.411C327.382 128.205 334.052 133.342 336.62 135.415C337.431 136.091 338.062 137.037 338.288 138.073C338.828 140.327 339.775 144.923 340.18 150.06C340.541 154.476 340.225 158.307 340.045 160.875C340 161.551 339.955 162.092 339.91 162.543C339.865 163.534 339.324 164.39 338.468 164.886C338.062 165.111 337.567 165.246 337.071 165.246L315.711 165.156H261.681C261.185 166.057 259.788 168.446 257.805 170.068C255.507 171.961 252.443 173.898 247.351 173.898ZM172.726 163.804H233.787L233.967 164.165C233.967 164.21 236.04 167.86 238.068 169.347C240.456 171.059 242.979 172.592 247.351 172.592C251.992 172.592 254.696 170.879 256.904 169.077C259.157 167.229 260.599 164.255 260.644 164.21L260.824 163.849H261.23H315.756L337.161 163.94C337.431 163.94 337.657 163.894 337.882 163.759C338.333 163.489 338.603 163.038 338.648 162.543C338.648 162.092 338.693 161.506 338.783 160.83C338.964 158.352 339.279 154.566 338.919 150.24C338.513 145.193 337.567 140.687 337.071 138.434C336.891 137.668 336.485 136.992 335.854 136.496C333.331 134.468 326.797 129.421 320.082 126.672C311.52 123.203 301.651 119.913 301.516 119.868L301.381 119.778C301.246 119.688 289.034 111.937 284.347 109.098C281.193 107.205 272.766 102.158 269.341 101.437C265.871 100.716 248.027 97.8772 235.905 98.0124H233.651C221.214 98.1025 204.225 98.1927 188.769 101.753C176.917 104.456 167.364 110.089 161.641 113.469C159.343 114.821 157.675 115.812 156.504 116.263C154.971 116.849 152.899 117.525 150.961 118.156C147.671 119.192 144.292 120.319 143.165 121.085C141.543 122.211 139.154 131.089 139.335 139.56L139.38 142.174C139.515 149.249 139.65 154.882 140.551 157.18C141.498 159.568 144.382 160.83 144.382 160.83L144.697 160.965L144.787 161.281C144.787 161.326 145.869 165.607 148.978 168.311C151.997 170.924 154.881 172.637 159.162 172.501C162.857 172.366 165.606 171.42 168.31 169.347C170.653 167.545 172.591 164.12 172.591 164.075L172.726 163.804Z" fill="white"/>
<path d="M244.916 172.862C235.904 172.862 228.559 165.112 228.559 155.603C228.559 146.095 235.904 138.344 244.916 138.344C253.929 138.344 261.274 146.095 261.274 155.603C261.274 165.112 253.974 172.862 244.916 172.862ZM244.916 144.698C239.374 144.698 234.867 149.61 234.867 155.648C234.867 161.687 239.374 166.599 244.916 166.599C250.459 166.599 254.965 161.687 254.965 155.648C254.965 149.61 250.504 144.698 244.916 144.698Z" fill="black"/>
<path d="M156.684 172.862C147.671 172.862 140.326 165.111 140.326 155.603C140.326 146.095 147.671 138.344 156.684 138.344C165.696 138.344 173.041 146.095 173.041 155.603C173.041 165.111 165.696 172.862 156.684 172.862ZM156.684 144.698C151.141 144.698 146.634 149.61 146.634 155.648C146.634 161.687 151.141 166.598 156.684 166.598C162.226 166.598 166.733 161.687 166.733 155.648C166.733 149.61 162.226 144.698 156.684 144.698Z" fill="black"/>
<path d="M235.138 118.877H174.303C174.168 118.877 171.419 118.651 169.707 118.111L170.112 116.804C171.599 117.254 174.123 117.48 174.393 117.48H231.758L218.735 105.223C218.69 105.178 215.941 102.564 213.328 101.798C209.497 100.671 198.817 101.482 193.725 102.068C189.579 102.519 180.837 104.186 174.979 106.574C169.481 108.828 164.029 111.982 163.984 111.982L163.308 110.81C163.353 110.765 168.895 107.611 174.438 105.313C180.432 102.834 189.354 101.167 193.545 100.716C194.176 100.626 208.641 99.049 213.688 100.491C216.662 101.347 219.546 104.141 219.681 104.231L235.138 118.877Z" fill="black"/>
<path d="M337.476 161.552L336.124 161.507C336.17 160.47 336.305 155.108 336.124 149.475C335.989 144.698 334.592 137.578 334.322 136.226C333.24 135.325 327.337 130.413 319.406 126.493C311.069 122.347 300.299 119.193 299.218 118.877H239.014L218.871 100.401L220.403 100.266C220.538 100.266 235.499 99.0946 246.134 99.0946C253.389 99.0946 260.869 100.041 264.655 100.582C266.953 100.897 269.206 101.618 271.369 102.61C274.794 104.232 279.435 106.53 282.184 108.333C286.555 111.171 292.684 115.407 292.729 115.452L291.963 116.579C291.918 116.534 285.789 112.343 281.418 109.504C278.714 107.747 274.118 105.494 270.783 103.871C268.755 102.925 266.637 102.294 264.474 101.979C260.689 101.438 253.299 100.537 246.134 100.537C237.572 100.537 226.171 101.303 222.07 101.573L239.509 117.57H299.353L299.443 117.615C299.578 117.661 311.114 120.95 319.992 125.321C328.869 129.737 335.313 135.325 335.358 135.37L335.539 135.505L335.584 135.731C335.674 136.091 337.341 144.113 337.476 149.475C337.612 155.108 337.476 160.515 337.476 161.552Z" fill="black"/>
<path d="M333.375 162.768H264.97V164.12H333.375V162.768Z" fill="black"/>
<path d="M227.568 162.768H175.25V164.12H227.568V162.768Z" fill="black"/>
<path d="M326.796 138.163H300.569V136.811H326.796C327.156 136.811 327.517 136.766 327.877 136.631C328.689 136.361 329.41 136 329.86 135.685C330.716 135.009 331.032 134.017 331.032 133.972L332.339 134.333C332.339 134.378 331.933 135.82 330.671 136.766C329.95 137.307 329.004 137.713 328.283 137.938C327.787 138.073 327.292 138.163 326.796 138.163Z" fill="black"/>
<path d="M333.736 141.634C333.24 141.634 332.744 141.454 332.339 141.138L327.968 137.713L328.779 136.632L333.15 140.057C333.33 140.192 333.511 140.237 333.736 140.237C334.006 140.237 334.232 140.147 334.322 140.057C334.727 139.696 334.862 139.245 334.907 139.245L336.214 139.606C336.169 139.696 335.944 140.462 335.223 141.093C334.862 141.409 334.412 141.544 333.826 141.589C333.826 141.634 333.781 141.634 333.736 141.634Z" fill="black"/>
<path d="M269.476 141.589C269.251 141.589 263.798 141.183 258.526 139.696C253.073 138.164 251.046 134.874 250.956 134.739L250.505 134.018L260.374 130.593L288.628 136.812L288.358 138.119L260.464 132.035L252.623 134.739C253.479 135.685 255.417 137.443 258.887 138.389C264.024 139.831 269.521 140.237 269.567 140.237L269.476 141.589Z" fill="black"/>
<path d="M136.765 156.685C135.909 154.477 135.368 144.968 135.459 137.939C135.549 130.503 137.261 121.175 139.83 119.012C141.181 117.885 143.93 117.119 146.814 116.308C149.248 115.632 151.771 114.956 153.439 114.055C154.926 113.244 157.134 111.982 159.522 110.585C163.307 108.422 167.183 106.169 169.166 105.223C172.951 103.42 177.637 101.437 183.586 99.9504C187.236 99.0492 207.379 95.6694 226.891 95.6694C245.142 95.6694 264.699 97.8775 269.296 99.8152L268.8 101.077C264.834 99.4097 246.494 97.0213 226.891 97.0213C207.514 97.0213 187.551 100.356 183.946 101.257C178.133 102.699 173.537 104.682 169.796 106.439C167.859 107.341 163.803 109.684 160.243 111.757C157.855 113.154 155.602 114.461 154.115 115.227C152.312 116.218 149.698 116.939 147.22 117.615C144.561 118.336 141.857 119.102 140.731 120.048C138.793 121.671 136.946 130.188 136.855 137.939C136.765 145.419 137.351 154.296 138.072 156.189L136.765 156.685Z" fill="black"/>
<path d="M190.977 173.899C161.1 173.899 138.028 173.854 136.09 173.764L136.135 172.412C141.813 172.682 335.223 172.412 337.161 172.412V173.764C331.979 173.809 248.747 173.899 190.977 173.899Z" fill="black"/>
<path d="M94.0561 67.2126L92.7183 67.4067L111.167 194.545L112.505 194.351L94.0561 67.2126Z" fill="#020202"/>
</svg>
