<svg width="428" height="249" viewBox="0 0 428 249" fill="none" xmlns="http://www.w3.org/2000/svg">
<path d="M39.238 195.754C39.238 195.754 -10.0692 144.649 44.9571 86.8038C99.9835 28.9588 224.171 13.3537 271.313 15.9681C318.455 18.5826 390.067 29.9392 408.736 70.7085C427.404 111.519 400.933 145.017 400.933 145.017C400.933 145.017 441.907 176.594 404.038 217.609C374.216 249.881 302.155 244.244 271.313 242.936C242.308 241.711 189.202 233.459 189.202 233.459C189.202 233.459 181.931 241.752 166.366 240.73C150.802 239.709 147.697 231.212 147.697 231.212C147.697 231.212 116.773 244.325 82.6626 242.773C48.552 241.221 31.4354 232.274 30.4142 217.282C29.3929 202.29 39.238 195.754 39.238 195.754Z" fill="#F4F6F7"/>
<path d="M340.432 32.6768H177.109V33.9023H340.432V32.6768Z" fill="black"/>
<path d="M372.949 49.4263H187.363V50.6518H372.949V49.4263Z" fill="black"/>
<path d="M59.2546 192.078H46.8359V193.303H59.2546V192.078Z" fill="black"/>
<path d="M216.244 192.078H187.363V193.303H216.244V192.078Z" fill="black"/>
<path d="M303.706 192.078H268.289V193.303H303.706V192.078Z" fill="black"/>
<path d="M401.79 192.078H385.735V193.303H401.79V192.078Z" fill="black"/>
<path d="M237.161 170.63H235.935L236.098 80.9207C236.098 77.0399 239.244 73.8535 243.166 73.8535H305.913V75.079H243.125C239.898 75.079 237.283 77.6935 237.283 80.9207L237.161 170.63Z" fill="black"/>
<path d="M313.104 100.776H311.878V125.327H313.104V100.776Z" fill="black"/>
<path d="M241.737 158.009H240.511V81.7809C240.511 79.7792 242.104 78.186 244.106 78.186H274.704V79.4116H244.106C242.799 79.4116 241.737 80.4737 241.737 81.7809V158.009Z" fill="black"/>
<path d="M275.806 83.4546H274.58V146.529H275.806V83.4546Z" fill="black"/>
<path d="M279.809 87.8257H278.583V151.472H279.809V87.8257Z" fill="black"/>
<path d="M316.82 88.48H315.595V122.141H316.82V88.48Z" fill="black"/>
<path d="M198.271 143.261H184.014V142.035H198.271C200.844 142.035 202.928 139.952 202.928 137.378V79.7783C202.928 77.2047 200.844 75.1213 198.271 75.1213H180.214V73.8958H198.271C201.498 73.8958 204.153 76.5511 204.153 79.7783V137.378C204.153 140.605 201.539 143.261 198.271 143.261Z" fill="black"/>
<path d="M203.54 97.5474H181.031V98.7729H203.54V97.5474Z" fill="black"/>
<path d="M203.54 101.022H182.053V102.248H203.54V101.022Z" fill="black"/>
<path d="M62.2769 26.3033L67.9551 20.8292C70.1611 18.705 73.8377 20.1756 73.9602 23.2394L82.6615 217.323H62.2769V26.3033Z" fill="#4B4C4C"/>
<path d="M180.255 217.323H82.6617L74.2056 15.968H171.799L180.255 217.323Z" fill="white"/>
<path d="M167.469 167.609H90.8731C88.0544 167.609 85.7259 165.403 85.6033 162.544L79.5982 27.4495C79.4757 24.4265 81.8859 21.9346 84.868 21.9346H162.24C165.059 21.9346 167.387 24.1814 167.51 27.0001L172.698 162.094C172.861 165.117 170.451 167.609 167.469 167.609Z" fill="#FF4E13"/>
<path d="M73.9776 23.2822L72.7534 23.3408L82.0364 217.333L83.2606 217.274L73.9776 23.2822Z" fill="black"/>
<path d="M180.869 217.935H103.701V216.709H179.603L171.514 24.0559C171.351 19.8891 167.919 16.621 163.752 16.621H86.6665V15.3955H163.752C168.614 15.3955 172.535 19.1947 172.74 24.0151L180.869 217.935Z" fill="black"/>
<path d="M170.613 174.47H89.4014V175.695H170.613V174.47Z" fill="black"/>
<path d="M118.856 180.353H89.4023V181.578H118.856V180.353Z" fill="black"/>
<path d="M145.572 128.148C140.793 129.005 131.275 138.769 121.797 140.771C101.412 145.101 98.6754 135.215 95.4074 141.261C92.4252 146.817 102.924 158.663 122.001 157.234C142.958 155.64 151.128 137.911 148.35 129.822C148.35 129.822 150.148 127.698 150.597 124.675C150.842 122.878 150.393 121.325 150.025 120.345C149.78 119.732 149.167 119.324 148.514 119.365L146.512 119.405C145.695 119.405 145.246 120.345 145.736 120.999C146.308 121.775 146.798 122.796 146.839 124.022C146.839 126.514 145.572 128.148 145.572 128.148Z" fill="white"/>
<path d="M117.018 157.233C112.116 157.233 107.459 156.334 103.455 154.618C99.2883 152.821 95.9386 150.247 94.0186 147.265C92.3437 144.692 91.976 142.118 93.0381 140.198C94.713 137.052 96.5922 137.706 99.37 138.646C102.842 139.83 108.643 141.791 119.836 139.381C125.147 138.237 130.662 134.479 135.115 131.497C138.383 129.25 141.242 127.33 143.367 126.84C143.653 126.39 144.347 125.042 144.306 123.286C144.265 122.346 143.939 121.447 143.326 120.63C142.958 120.14 142.917 119.527 143.162 118.955C143.448 118.424 143.979 118.057 144.592 118.057L146.594 118.016C147.533 117.975 148.35 118.547 148.718 119.405C149.167 120.467 149.617 122.142 149.331 124.021C148.963 126.554 147.697 128.515 147.166 129.209C148.391 133.253 147.084 139.013 143.816 144.038C140.916 148.491 133.971 156.089 120.163 157.11C119.142 157.192 118.08 157.233 117.018 157.233ZM96.2245 139.136C95.3666 139.136 94.7947 139.585 94.1411 140.811C93.3241 142.322 93.6917 144.446 95.0807 146.612C98.5122 151.922 107.581 156.824 120.122 155.885C133.358 154.863 140.017 147.592 142.836 143.343C146.022 138.523 147.247 133.008 145.94 129.291L145.818 128.964L146.063 128.678C146.063 128.678 147.779 126.635 148.146 123.858C148.391 122.224 147.983 120.794 147.615 119.854C147.452 119.486 147.084 119.241 146.676 119.241L144.674 119.282C144.47 119.282 144.347 119.446 144.347 119.486C144.306 119.568 144.265 119.732 144.388 119.895C145.164 120.957 145.573 122.101 145.613 123.286C145.695 125.941 144.347 127.738 144.306 127.779L144.143 127.983L143.898 128.024C141.978 128.351 139.159 130.312 135.85 132.559C131.316 135.623 125.719 139.463 120.163 140.647C108.643 143.098 102.638 141.056 99.0432 139.871C97.736 139.422 96.8781 139.136 96.2245 139.136Z" fill="black"/>
<path d="M115.18 150.41C106.928 150.41 103.169 146.407 102.924 146.162L103.823 145.345C103.905 145.426 111.748 153.637 129.641 145.712C138.996 141.586 141.61 133.62 141.651 133.539L142.836 133.906C142.713 134.233 140.058 142.444 130.172 146.815C124.044 149.511 119.101 150.41 115.18 150.41Z" fill="black"/>
<path d="M94.4678 144.976L93.5691 141.627C93.5691 141.627 93.5691 141.627 93.5282 141.627C93.1197 141.627 92.7112 141.627 92.4661 141.259C92.4252 141.259 92.3844 141.218 92.3027 141.218L91.0771 140.85L92.0984 140.115C92.9154 139.502 93.4874 139.216 93.9776 139.012C93.6508 138.522 93.324 138.032 93.038 137.541L94.1001 136.929C94.3861 137.419 94.672 137.868 94.9988 138.318C95.0805 138.195 95.2031 138.113 95.2848 137.991C95.775 137.623 96.4695 137.623 96.878 138.032L97.2048 138.318L97.0414 138.726C96.9188 139.012 96.6329 139.135 96.5512 139.216C96.3469 139.339 96.1427 139.421 95.9384 139.502C96.3469 140.033 96.7963 140.564 97.2865 141.055L100.228 144.159L96.5103 141.994C96.1835 141.79 95.8159 141.708 95.4074 141.667C95.4074 142.198 95.4074 142.77 95.1623 143.301L94.4678 144.976Z" fill="black"/>
<path d="M102.434 128.513C99.8193 126.634 93.7734 126.756 96.5921 116.952C99.6151 106.331 103.864 104.534 106.927 103.921C109.542 103.39 112.851 104.125 116.691 109.231C120.531 114.338 123.431 112.173 126.454 117.565C128.946 122.059 127.149 126.634 120.694 130.882C113.464 135.662 110.767 135.907 106.968 132.925C105.416 131.781 105.007 130.392 102.434 128.513Z" fill="white"/>
<path d="M109.297 134.109C107.541 134.109 105.988 133.415 104.232 132.067C103.537 131.536 103.088 130.964 102.557 130.351C101.903 129.575 101.168 128.676 99.7381 127.614C99.2479 127.287 98.5943 127.001 97.9407 126.675C95.1219 125.408 91.2819 123.733 93.6513 115.4C96.7151 104.738 101.004 102.613 104.436 101.96C108.031 101.265 111.422 103.063 114.812 107.515C116.528 109.803 118.08 110.538 119.551 111.274C121.226 112.091 122.941 112.908 124.616 115.931C126.496 119.321 127.027 124.55 118.693 130.065C114.485 132.802 111.707 134.109 109.297 134.109ZM105.947 102.981C105.539 102.981 105.13 103.022 104.722 103.103C102.761 103.512 98.1041 104.411 94.8768 115.686C92.7934 122.998 95.6939 124.264 98.4717 125.531C99.207 125.858 99.9015 126.184 100.514 126.593C102.067 127.737 102.884 128.676 103.578 129.534C104.068 130.106 104.477 130.596 105.049 131.086C108.439 133.742 110.809 133.823 118.08 129.003C124.167 125 126.005 120.792 123.636 116.503C122.165 113.806 120.736 113.153 119.102 112.336C117.59 111.6 115.833 110.743 113.913 108.21C111.176 104.697 108.603 102.981 105.947 102.981Z" fill="black"/>
<path d="M117.345 114.095C116.692 114.095 115.344 113.972 113.75 113.074C111.504 111.807 111.34 108.866 111.299 108.743L112.525 108.703C112.525 108.743 112.647 111.113 114.322 112.052C116.079 113.033 117.55 112.91 117.55 112.91L117.713 114.136C117.713 114.095 117.59 114.095 117.345 114.095Z" fill="black"/>
<path d="M114.689 112.869L114.444 112.787L113.831 112.869C113.668 111.358 114.199 109.928 114.893 108.335C115.343 107.354 115.751 106.333 116.2 105.352L116.446 104.821L116.854 105.23C117.017 105.393 117.181 105.516 117.385 105.598L117.753 105.761L114.689 112.869Z" fill="black"/>
<path d="M115.833 87.4196C115.343 89.9932 116.405 92.5259 118.284 95.794C121.266 100.982 130.376 111.971 140.875 111.971C146.104 111.971 149.658 108.417 151.986 105.312C154.315 102.208 154.682 98.531 154.396 96.2434C153.007 84.8868 141.692 78.4323 135.115 75.9404C132.01 74.7557 128.905 74.3472 127.108 74.674" fill="white"/>
<path d="M120.654 85.9887C124.003 84.7224 125.923 82.2304 126.781 78.6356C127.639 75.0407 127.108 71.2824 127.517 67.6058C125.719 70.1794 123.963 72.7939 122.165 75.3675C119.306 66.8705 117.467 64.8279 114.608 56.29C115.261 64.2151 114.975 65.6041 115.752 73.5292C107.54 67.1156 107.173 65.7675 97.2869 62.4177C104.64 69.6483 105.008 70.016 112.361 77.2466C106.519 78.3904 100.882 80.6781 95.8979 83.987C102.638 83.7828 109.379 83.5785 116.119 83.3743C114.526 84.9675 112.974 86.5606 111.38 88.1947C114.403 87.2143 117.508 86.4789 120.654 85.9887Z" fill="white"/>
<path d="M138.546 111.112C127.394 111.112 118.08 99.2241 115.425 94.6488C113.464 91.2582 112.361 88.6029 112.892 85.8658L114.076 86.1109C113.627 88.4803 114.648 90.8905 116.487 94.036C117.998 96.6097 120.939 100.572 124.82 103.881C128.007 106.618 132.99 109.886 138.546 109.886C142.468 109.886 145.94 107.803 149.167 103.473C151.292 100.654 151.741 97.1407 151.455 94.8531C150.842 89.9918 148.35 85.5799 143.939 81.7399C139.731 78.0633 134.992 75.939 132.541 75.0403C129.314 73.8148 126.373 73.5288 124.861 73.8148L124.657 72.5893C126.659 72.2216 129.927 72.7527 132.95 73.8965C135.482 74.8361 140.385 77.0012 144.715 80.8412C149.331 84.8854 151.986 89.5424 152.64 94.7305C152.967 97.2633 152.436 101.144 150.107 104.249C146.635 108.865 142.836 111.112 138.546 111.112Z" fill="black"/>
<path d="M132.141 79.3117L130.917 79.3739L132.041 101.486L133.265 101.424L132.141 79.3117Z" fill="black"/>
<path d="M138.791 85.6813L137.567 85.729L138.29 104.301L139.515 104.254L138.791 85.6813Z" fill="black"/>
<path d="M144.09 90.6724L122.77 91.1097L122.795 92.335L144.115 91.8977L144.09 90.6724Z" fill="black"/>
<path d="M150.66 96.3481L135.265 96.7892L135.3 98.0142L150.695 97.5731L150.66 96.3481Z" fill="black"/>
<path d="M132.486 96.7504L127.463 96.8748L127.493 98.0999L132.516 97.9756L132.486 96.7504Z" fill="black"/>
<path d="M106.928 87.9913L112.279 82.5581L91.4043 83.2117L93.2017 82.027C97.8996 78.9224 103.251 76.6755 108.766 75.45L92.589 59.559L95.1217 60.4168C103.292 63.1947 105.089 64.6653 109.951 68.587C110.768 69.2407 111.666 69.976 112.647 70.7521C112.361 67.3615 112.238 65.2781 112.157 63.0313C112.075 60.8662 111.952 58.5785 111.626 54.902L111.176 49.8364L112.81 54.6568C114.24 58.9054 115.425 61.5607 116.569 64.1343C117.631 66.5036 118.693 68.9139 120 72.5496L126.046 63.7666L125.76 66.1768C125.597 67.6475 125.597 69.1181 125.597 70.5887C125.597 72.7947 125.556 75.0824 125.025 77.2883C124.085 81.21 121.961 83.7428 118.529 85.05L118.407 85.0909C115.302 85.5811 112.197 86.3164 109.215 87.2151L106.928 87.9913ZM115.261 81.21L111.094 85.4585C113.423 84.8458 115.792 84.3147 118.162 83.947C121.185 82.8032 123.023 80.5155 123.881 77.0432C124.371 74.9598 124.371 72.8764 124.412 70.6296C124.412 69.8943 124.412 69.1181 124.453 68.3419L119.673 75.2866L119.265 74.1428C117.835 69.8943 116.65 67.239 115.506 64.6653C114.771 63.0313 114.036 61.3564 113.219 59.273C113.3 60.662 113.341 61.8466 113.423 62.9905C113.546 65.4824 113.627 67.8517 114.036 72.0594L114.158 73.4892L113.014 72.5904C111.503 71.4058 110.277 70.3845 109.174 69.5266C104.926 66.0543 103.129 64.6245 97.3277 62.5002L111.258 76.1853L110.114 76.3896C105.089 77.37 100.187 79.2492 95.7754 81.8228L115.261 81.21Z" fill="black"/>
<path d="M163.425 33.9018H87.8913L84.2964 27.3656H163.384V33.9018H163.425ZM88.6266 32.6762H162.199V28.5911H86.3798L88.6266 32.6762Z" fill="black"/>
<path d="M165.182 55.4701H118.816L114.895 35.9841H161.138L165.182 55.4701ZM119.838 54.2445H163.671L160.117 37.2097H116.365L119.838 54.2445Z" fill="black"/>
<path d="M350.604 93.2604C350.604 93.2604 355.67 85.7846 367.353 86.9693C379.036 88.154 395.295 103.596 395.295 122.755C395.295 138.197 378.914 142.363 378.914 142.363" fill="#D8E1E9"/>
<path d="M326.625 155.435L312.287 200.861H382.673L375.892 99.6735C375.892 99.6735 372.705 86.8054 362.656 86.8054C341.536 86.8463 326.625 155.435 326.625 155.435Z" fill="#D8E1E9"/>
<path d="M331.894 228.517H290.88L308.242 221.613" fill="#D8E1E9"/>
<path d="M375.483 228.843H338.023L349.38 222.879" fill="#D8E1E9"/>
<path d="M314.492 199.309L308.65 221.655L332.425 228.314L338.961 199.309" fill="white"/>
<path d="M349.788 199.349V222.757L375.851 228.312V199.349" fill="white"/>
<path d="M381.692 199.962H309.794L324.378 153.719L325.563 154.086L311.469 198.736H380.385L373.645 98.2021L374.87 98.1204L381.692 199.962Z" fill="black"/>
<path d="M377.238 141.341L376.952 140.156C377.116 140.116 392.843 135.908 392.843 121.12C392.843 101.675 376.339 87.091 365.432 85.9471C354.239 84.8033 349.296 91.8705 349.255 91.9522L348.234 91.2578C348.438 90.931 353.626 83.4961 365.555 84.7216C371.601 85.3344 378.79 89.7054 384.305 96.0782C390.596 103.35 394.028 112.214 394.028 121.079C394.11 136.888 377.442 141.3 377.238 141.341Z" fill="black"/>
<path d="M376.462 229.088L349.174 223.247V199.349H350.399V222.266L375.237 227.577V199.349H376.462V229.088Z" fill="black"/>
<path d="M376.422 229.212H336.47L350.073 222.104L350.604 223.207L341.454 227.986H376.422V229.212Z" fill="black"/>
<path d="M332.875 229.128H288.674L309.018 221.04L309.467 222.184L295.088 227.903H332.875V229.128Z" fill="black"/>
<path d="M332.916 229.17L307.874 222.143L313.879 199.267L315.064 199.553L309.386 221.286L331.976 227.658L338.349 199.267L339.574 199.553L332.916 229.17Z" fill="black"/>
<path d="M333.345 157.845L332.399 158.624L347.52 176.971L348.466 176.192L333.345 157.845Z" fill="black"/>
<path d="M342.843 86.9701C342.843 86.9701 343.619 85.5812 345.09 84.7641C346.56 83.9471 348.766 84.2739 348.766 84.2739C348.766 84.2739 347.5 81.4552 348.766 81.2509C350.033 81.0467 356.038 83.0892 360.205 81.9454C364.371 80.8424 368.211 79.7803 370.009 78.228C371.806 76.6756 372.582 80.4748 373.154 82.599C373.726 84.7233 372.378 89.9114 364.943 91.7088C357.549 93.5063 352.811 91.2186 352.811 91.2186L353.464 113.442L338.145 123.736" fill="#FF4E13"/>
<path d="M371.968 76.7151C371.968 76.7151 340.636 62.5398 342.801 60.0071C344.966 57.4743 354.361 62.2539 354.361 62.2539C354.361 62.2539 358.528 56.1262 368.292 62.1722C377.973 68.1773 371.968 76.7151 371.968 76.7151Z" fill="#FF4E13"/>
<path d="M364.494 79.4122C363.636 79.4122 362.819 79.0853 362.165 78.5134C361.348 77.7373 361.021 76.6343 361.307 75.4496L362.492 75.7356C362.329 76.4709 362.492 77.1245 362.982 77.6147C363.513 78.1458 364.371 78.3092 365.147 78.0641C366.209 77.7373 367.026 76.6751 367.353 75.0819C367.843 72.8351 366.74 71.6913 365.637 71.4054C364.739 71.1602 363.636 71.4462 363.309 72.5492L362.124 72.1815C362.655 70.3841 364.453 69.8122 365.923 70.1798C367.639 70.6292 369.192 72.4266 368.538 75.327C367.925 78.0641 366.373 78.9219 365.474 79.2079C365.188 79.3304 364.861 79.4122 364.494 79.4122Z" fill="black"/>
<path d="M353.995 86.2747C353.464 86.2747 352.932 86.2339 352.401 86.1522C349.664 85.7845 347.418 84.3956 346.11 82.3122C342.801 77.0016 349.297 66.9522 349.583 66.5437L350.604 67.1973C350.522 67.279 344.231 77.0016 347.132 81.6586C349.583 85.5803 355.343 85.662 358.366 83.9871C361.307 82.3939 362.532 78.2679 362.532 78.2271L363.717 78.5539C363.676 78.7582 362.328 83.2109 358.938 85.0492C357.63 85.8662 355.792 86.2747 353.995 86.2747Z" fill="black"/>
<path d="M350.604 80.3908C350.482 80.3908 350.359 80.3908 350.196 80.3908C346.519 80.1457 345.539 77.2453 345.539 75.7747H346.764C346.764 76.1015 346.887 78.961 350.277 79.2061C353.3 79.4104 353.913 76.9185 354.036 76.4283L355.22 76.6325C354.893 78.3891 353.505 80.3908 350.604 80.3908Z" fill="black"/>
<path d="M282.71 218.999L252.113 218.835C252.113 218.835 246.148 218.182 246.189 210.175C246.23 203.639 252.194 202.781 252.194 202.781L282.792 202.944C282.792 202.944 287.98 203.108 288.143 210.992C288.347 218.958 282.71 218.999 282.71 218.999Z" fill="white"/>
<path d="M254.032 218.55L253.991 227.047C253.991 227.047 253.909 229.131 250.6 229.172C247.209 229.253 247.209 227.006 247.209 227.006L247.291 215.405" fill="white"/>
<path d="M259.18 218.387L259.139 226.843C259.139 226.843 259.057 228.926 255.748 228.967C254.563 229.008 253.787 228.722 253.297 228.395L253.093 217.529" fill="white"/>
<path d="M279.156 218.672L279.115 227.169C279.115 227.169 279.033 229.252 275.724 229.293C272.333 229.375 272.333 227.128 272.333 227.128L272.374 218.631" fill="white"/>
<path d="M286.183 216.425L290.023 224.8C290.023 224.8 290.84 226.72 287.817 228.19C284.794 229.661 283.814 227.659 283.814 227.659L279.729 218.713" fill="white"/>
<path d="M249.457 228.764C248.15 228.764 247.129 228.437 246.434 227.742C245.658 226.966 245.617 226.067 245.617 225.945L245.699 214.302H246.924L246.843 225.904C246.843 226.067 246.965 227.538 249.621 227.456C252.276 227.415 252.439 225.945 252.439 225.904L252.48 217.448H253.706L253.665 225.945C253.665 225.986 253.542 228.6 249.661 228.682C249.539 228.764 249.498 228.764 249.457 228.764Z" fill="black"/>
<path d="M254.564 228.559C253.461 228.559 252.562 228.314 251.908 227.865L252.603 226.843C253.093 227.17 253.787 227.334 254.686 227.334C257.341 227.293 257.505 225.822 257.505 225.781L257.546 218.02H258.771L258.73 225.822C258.73 225.863 258.608 228.477 254.727 228.559C254.645 228.559 254.604 228.559 254.564 228.559Z" fill="black"/>
<path d="M274.539 228.884C273.232 228.884 272.21 228.557 271.516 227.862C270.74 227.086 270.699 226.187 270.699 226.065L270.74 217.568H271.965L271.924 226.065C271.924 226.228 272.047 227.699 274.702 227.617C277.357 227.576 277.521 226.106 277.521 226.065L277.562 217.609H278.787L278.746 226.106C278.746 226.147 278.624 228.761 274.743 228.843C274.62 228.884 274.58 228.884 274.539 228.884Z" fill="black"/>
<path d="M284.834 228.273C284.467 228.273 284.14 228.232 283.813 228.109C282.751 227.742 282.342 226.925 282.301 226.843L278.216 217.897L279.319 217.406L283.404 226.353C283.486 226.475 284.221 227.742 286.55 226.598C288.96 225.413 288.47 224.065 288.429 223.983L284.589 215.65L285.692 215.16L289.532 223.534C289.532 223.575 290.553 226.026 287.04 227.701C286.264 228.109 285.529 228.273 284.834 228.273Z" fill="black"/>
<path d="M285.693 216.302L284.712 215.608C285.529 214.505 286.428 212.789 286.428 209.684C286.428 202.535 281.853 202.249 281.648 202.249L251.092 202.086C250.561 202.168 245.699 203.148 245.659 208.867C245.659 211.073 246.108 213.157 246.884 214.423L245.863 215.077C244.964 213.606 244.433 211.359 244.433 208.867C244.433 205.231 246.231 203.23 247.701 202.208C249.294 201.105 250.888 200.86 250.928 200.86H250.969H251.01L281.608 201.024C281.689 201.024 287.572 201.31 287.572 209.684C287.653 213.157 286.591 215.036 285.693 216.302Z" fill="black"/>
<path d="M257.56 216.923L257.553 218.149L271.933 218.223L271.939 216.998L257.56 216.923Z" fill="black"/>
<path d="M228.869 196.777C228.869 196.777 222.782 200.372 223.109 205.193C223.313 208.216 227.153 202.537 228.297 201.394C229.277 200.372 232.831 198.003 232.831 198.003L228.869 196.777Z" fill="#4B4C4C"/>
<path d="M223.557 206.542C223.476 206.542 223.353 206.542 223.272 206.501C222.945 206.419 222.495 206.092 222.455 205.194C222.128 200.087 228.255 196.37 228.5 196.247L229.113 197.309C229.072 197.35 223.353 200.782 223.639 205.153C223.639 205.235 223.639 205.275 223.68 205.316C224.334 205.071 226.172 203.192 227.765 201.027L228.746 201.762C227.152 203.968 224.946 206.542 223.557 206.542Z" fill="black"/>
<path d="M252.806 197.552C257.014 193.548 252.03 189.259 252.03 189.259L241.981 180.884C241.981 180.884 241.123 182.273 240.959 188.033C240.796 193.793 243.002 195.06 243.002 195.06C243.002 195.06 245.33 197.143 247.741 197.715C250.314 198.369 252.806 197.552 252.806 197.552Z" fill="white"/>
<path d="M248.926 186.973C248.926 186.973 248.599 187.136 251.337 182.071C254.074 177.005 254.768 176.188 254.768 176.188L259.956 188.198C259.956 188.198 261.549 192.774 255.994 194.49C255.994 194.49 251.99 195.184 250.193 193.06C248.395 190.935 248.926 186.973 248.926 186.973Z" fill="white"/>
<path d="M241.777 187.341H225.641C225.641 187.341 224.905 190.854 225.641 194.367C226.376 197.88 234.097 198.942 234.097 198.942L228.46 201.924C228.46 201.924 229.358 203.844 235.894 204.988C240.592 205.805 244.922 203.64 247.21 202.578C250.07 201.271 257.464 196.328 257.627 191.63C257.831 185.298 241.777 187.341 241.777 187.341Z" fill="white"/>
<path d="M236.63 204.783C235.935 204.783 235.241 204.742 234.505 204.62C227.847 203.476 226.744 201.474 226.621 201.229L226.376 200.698L230.992 198.247C228.541 197.675 224.333 196.327 223.761 193.508C222.985 189.913 223.721 186.4 223.761 186.237L223.884 185.746H240.551V186.972H224.905C224.742 188.034 224.456 190.648 224.987 193.263C225.518 195.796 230.91 197.103 232.953 197.389L234.832 197.634L228.214 201.147C228.95 201.719 230.706 202.7 234.75 203.435C237.978 204.007 241.287 202.985 243.002 201.76C243.819 201.188 244.35 200.534 244.432 199.962L245.658 200.167C245.494 201.106 244.841 202.005 243.738 202.781C242.104 203.843 239.448 204.783 236.63 204.783Z" fill="black"/>
<path d="M236.706 188.147L235.22 192.474L236.379 192.872L237.865 188.545L236.706 188.147Z" fill="black"/>
<path d="M251.784 196.204L250.926 195.305C252.152 194.12 252.805 192.895 252.805 191.669C252.805 190.076 251.743 188.932 251.621 188.81L242.266 181.007C242.021 181.906 241.694 183.744 241.571 187.135C241.408 192.405 243.287 193.589 243.287 193.589L242.674 194.652C242.429 194.488 240.142 193.058 240.346 187.094C240.509 181.334 241.367 179.782 241.449 179.618L241.817 179.006L252.438 187.87C252.519 187.952 253.99 189.382 253.99 191.629C254.031 193.263 253.255 194.774 251.784 196.204Z" fill="black"/>
<path d="M256.238 193.918L255.87 192.733C257.504 192.243 258.607 191.426 259.179 190.323C259.915 188.893 259.465 187.422 259.424 187.218L254.686 176.27C254.195 177.087 253.338 178.517 251.908 181.172C249.784 185.053 249.579 185.747 249.538 185.87C249.579 185.747 249.538 185.502 249.334 185.339L248.966 185.829L249.252 186.401L248.517 186.278C248.149 185.911 248.068 185.788 250.846 180.641C253.542 175.657 254.277 174.759 254.318 174.677L254.972 173.901L260.568 186.85C260.609 186.932 261.263 188.934 260.282 190.895C259.547 192.284 258.199 193.305 256.238 193.918Z" fill="black"/>
<path d="M262.202 200.657L245.372 212.014C245.372 212.014 241.9 213.975 239.53 210.421C237.569 207.52 240.592 204.947 240.592 204.947L257.423 193.59C257.423 193.59 260.323 191.711 262.774 195.143C265.307 198.533 262.202 200.657 262.202 200.657Z" fill="#FF4E13"/>
<path d="M292.31 193.305C292.065 202.578 285.161 206.908 282.343 205.152C279.279 203.232 284.712 202.496 283.486 192.447C282.751 186.483 275.275 179.742 279.034 179.048C283.527 178.149 292.596 183.133 292.31 193.305Z" fill="white"/>
<path d="M284.058 205.803C283.445 205.803 282.873 205.68 282.383 205.394C280.503 204.332 281.035 203.188 281.606 201.84C282.342 200.247 283.526 197.592 282.628 192.24C282.178 189.708 280.381 186.93 278.91 184.724C277.317 182.314 276.173 180.598 276.663 179.372C276.868 178.841 277.317 178.514 278.012 178.351C280.544 177.779 284.18 178.882 287.04 181.088C290.635 183.866 292.636 187.992 292.759 192.69C292.84 196.693 291.37 202.331 286.999 204.904C286.018 205.476 284.997 205.803 284.058 205.803ZM279.523 179.413C279.074 179.413 278.665 179.454 278.338 179.536C278.134 179.577 277.889 179.658 277.848 179.822C277.603 180.475 278.869 182.354 279.972 184.029C281.525 186.358 283.404 189.217 283.894 192.036C284.875 197.796 283.567 200.656 282.791 202.371C282.178 203.719 282.138 203.801 283.036 204.332C283.853 204.782 285.12 204.618 286.427 203.842C288.878 202.371 291.697 198.613 291.574 192.69C291.452 186.889 288.265 183.539 286.345 182.028C283.935 180.148 281.361 179.413 279.523 179.413Z" fill="black"/>
<path d="M324.051 156.253C325.113 157.969 325.439 158.908 325.276 161.196C324.908 167.936 318.536 173.696 311.101 173.696C303.666 173.696 298.682 167.936 299.826 161.196C300.765 155.803 304.605 152.209 310.079 151.065L307.996 154.864C305.749 156.294 304.034 158.581 303.584 161.237C302.767 166.057 306.28 170.183 311.509 170.183C316.738 170.183 321.232 166.057 321.518 161.237C321.559 160.787 321.64 160.379 321.599 160.011L324.051 156.253Z" fill="white"/>
<path d="M312.491 144.731C312.491 144.731 309.999 145.752 308.937 147.549C307.916 149.347 307.957 151.185 307.957 151.185L307.671 153.84C307.671 153.84 307.017 156.455 308.651 157.394C310.285 158.334 311.756 157.394 311.756 157.394C311.756 157.394 310.571 159.559 312.532 160.662C314.493 161.765 316.168 159.845 316.168 159.845C316.168 159.845 315.8 160.785 317.352 161.52C318.905 162.256 320.048 161.234 320.048 161.234L324.705 153.963C324.705 153.963 327.688 149.388 321.437 145.629C317.393 143.137 312.491 144.731 312.491 144.731Z" fill="white"/>
<path d="M349.705 92.8918C349.705 92.8918 326.216 120.916 313.756 136.153C311.387 139.053 311.101 148.204 319.557 152.739C329.77 158.213 335.285 154.332 337.695 151.227C346.682 139.421 357.467 127.166 360.939 115.401C362.124 111.356 362.124 103.391 361.674 99.428C361.429 97.1812 360.612 93.5454 356.854 91.8297C352.401 89.7463 349.705 92.8918 349.705 92.8918Z" fill="#D8E1E9"/>
<path d="M310.244 158.824C309.631 158.824 308.978 158.661 308.324 158.13C306.894 157.068 307.017 155.352 307.303 154.617L307.384 154.494L310.652 149.674L311.674 150.368L308.447 155.107C308.365 155.393 308.161 156.455 309.1 157.149C310.203 157.966 311.143 157.395 311.388 157.19L313.226 154.658L314.207 155.352L312.246 158.089C311.796 158.457 311.102 158.824 310.244 158.824Z" fill="black"/>
<path d="M313.839 161.929C313.389 161.929 312.858 161.806 312.286 161.48C311.469 160.989 310.979 160.377 310.816 159.641C310.571 158.457 311.306 157.394 311.306 157.354L312.286 158.048C312.286 158.048 311.837 158.702 312 159.396C312.082 159.805 312.409 160.131 312.899 160.458C314.002 161.112 314.656 160.499 314.819 160.336L316.902 157.109L317.924 157.762L315.799 161.071C315.473 161.439 314.778 161.929 313.839 161.929Z" fill="black"/>
<path d="M318.659 162.787C318.21 162.787 317.678 162.665 317.107 162.338C316.29 161.888 315.799 161.235 315.677 160.5C315.432 159.274 316.208 158.171 316.208 158.13L317.188 158.866C317.188 158.866 316.698 159.56 316.861 160.295C316.943 160.704 317.229 161.031 317.719 161.317C318.822 161.97 319.476 161.357 319.639 161.194L324.46 153.637L325.481 154.29L320.579 161.929C320.293 162.256 319.598 162.787 318.659 162.787Z" fill="black"/>
<path d="M307.384 151.472C307.384 151.391 307.343 149.471 308.405 147.51C309.508 145.549 312.122 144.487 312.245 144.405L312.694 145.549C312.653 145.549 310.366 146.489 309.467 148.082C308.527 149.716 308.568 151.391 308.568 151.391L307.384 151.472Z" fill="black"/>
<path d="M310.939 174.308C307.099 174.308 303.626 172.796 301.42 170.141C299.337 167.649 298.479 164.422 299.092 161.072C300.072 155.557 303.953 151.676 309.836 150.451L311.143 150.165L308.324 155.271L308.201 155.353C305.955 156.783 304.443 158.948 304.035 161.317C303.667 163.401 304.198 165.443 305.505 166.955C306.894 168.589 308.978 169.528 311.388 169.528C316.208 169.528 320.498 165.688 320.784 161.154C320.784 160.99 320.824 160.786 320.824 160.623C320.865 160.378 320.865 160.173 320.865 160.01V159.806L323.929 155.067L324.419 155.884C325.522 157.641 325.89 158.744 325.767 161.195C325.318 168.303 318.537 174.308 310.939 174.308ZM308.692 152.003C304.116 153.392 301.053 156.742 300.276 161.317C299.745 164.299 300.481 167.159 302.36 169.365C304.361 171.775 307.425 173.082 310.939 173.082C317.924 173.082 324.133 167.608 324.501 161.154C324.583 159.397 324.46 158.539 323.847 157.396L322.05 160.173C322.05 160.378 322.009 160.623 322.009 160.827C322.009 160.99 321.968 161.113 321.968 161.276C321.682 166.424 316.821 170.795 311.347 170.795C308.569 170.795 306.159 169.733 304.525 167.813C302.973 165.974 302.36 163.605 302.809 161.154C303.259 158.499 304.933 156.047 307.384 154.454L308.692 152.003Z" fill="black"/>
<path d="M328.014 154.821C325.399 154.821 322.213 154.086 318.373 152.003C314.451 149.919 311.837 146.528 311.061 142.484C310.448 139.42 310.979 136.193 312.368 134.477C324.705 119.444 348.112 91.5021 348.317 91.2162L349.256 91.9924C349.011 92.2783 325.644 120.18 313.307 135.254C312.368 136.397 311.633 139.094 312.245 142.239C312.981 145.916 315.35 148.98 318.945 150.9C329.035 156.292 334.141 152.37 336.307 149.551C337.818 147.55 339.452 145.507 341.004 143.505C348.684 133.701 356.609 123.57 359.469 113.889C360.613 110.008 360.164 98.2426 360.164 98.12L361.389 98.0792C361.389 98.5694 361.838 110.171 360.654 114.256C357.753 124.142 349.706 134.396 341.985 144.282C340.432 146.243 338.839 148.326 337.328 150.287C335.98 152.003 333.079 154.821 328.014 154.821Z" fill="black"/>
<path d="M280.423 216.016C262.857 216.016 248.314 215.199 248.232 205.19H249.457C249.539 214.055 263.51 214.79 280.423 214.79C288.715 214.79 295.66 212.094 300.44 207.029C304.729 202.494 307.098 196.244 307.098 189.463V173.694H308.324V189.463C308.324 196.571 305.832 203.107 301.338 207.846C296.314 213.156 289.083 216.016 280.423 216.016Z" fill="black"/>
</svg>
