<svg width="436" height="245" viewBox="0 0 436 245" fill="none" xmlns="http://www.w3.org/2000/svg">
<path d="M139.246 233.58C139.246 233.58 86.9339 247.094 56.7751 223.831C8.26727 186.419 46.1144 143.737 46.1144 143.737C46.1144 143.737 36.2861 132.205 40.368 102.601C46.7485 56.5104 89.1136 36.4969 149.828 29.3238C225.245 20.4069 324.836 51.5565 324.836 51.5565C324.836 51.5565 325.391 31.2261 369.5 39.5485C413.608 47.8709 385.55 74.8989 385.55 74.8989C385.55 74.8989 432.076 84.6084 432.195 127.409C432.274 171.003 437.387 225.059 331.058 235.878C224.729 246.697 139.246 233.58 139.246 233.58Z" fill="#F4F6F7"/>
<path d="M259.763 39.8647H151.096V41.0537H259.763V39.8647Z" fill="black"/>
<path d="M259.921 53.9336H75.9165V55.1225H259.921V53.9336Z" fill="black"/>
<path d="M241.889 62.0977H240.7V189.985H241.889V62.0977Z" fill="black"/>
<path d="M236.222 77.078H235.033V180.633H236.222V77.078Z" fill="black"/>
<path d="M285.999 19.4944C285.999 19.4944 380.557 19.4944 385.669 19.4944L381.429 200.329L277.438 200.447L285.999 19.4944Z" fill="#4B4C4C"/>
<path d="M271.85 19.5739C271.85 19.5739 366.409 19.5739 371.521 19.5739L367.281 200.408L263.25 200.527L271.85 19.5739Z" fill="#FF4E13"/>
<path d="M362.842 173.776H269.036V174.965H362.842V173.776Z" fill="black"/>
<path d="M276.964 28.6997L271.664 135.693L272.851 135.751L278.152 28.7585L276.964 28.6997Z" fill="black"/>
<path d="M364.665 93.1676L363.476 93.1279L364.744 35.4655C364.784 33.2858 364.229 31.8195 363.912 31.661H310.965V30.472H363.951C364.189 30.472 364.506 30.5513 364.823 30.8684C365.537 31.6213 365.973 33.4047 365.933 35.4655L364.665 93.1676Z" fill="black"/>
<path d="M211.809 199.854H163.143V201.043H211.809V199.854Z" fill="black"/>
<path d="M413.094 199.854H263.25V201.043H413.094V199.854Z" fill="black"/>
<path d="M385.788 215.151H292.379V216.34H385.788V215.151Z" fill="black"/>
<path d="M234.438 215.151H185.772V216.34H234.438V215.151Z" fill="black"/>
<path d="M170 234.252H168.811V228.228H101.716V227.04H170V234.252Z" fill="black"/>
<path d="M71.9932 202.072H43.3403V203.261H71.9932V202.072Z" fill="black"/>
<path d="M102.866 195.81H101.677V228.109H102.866V195.81Z" fill="black"/>
<path d="M114.557 222.76C114.557 222.76 114.2 228.15 115.745 229.14C117.291 230.131 120.501 229.854 122.641 229.735C124.781 229.656 128.546 229.259 128.546 229.259C128.546 229.259 128.427 230.646 128.942 231.082C129.497 231.518 131.36 232.905 144.398 231.994C157.437 231.082 160.171 230.527 160.171 230.527C160.171 230.527 161.043 228.11 159.26 225.811C157.476 223.513 155.376 220.382 151.73 220.025C148.084 219.669 119.827 219.233 117.291 220.025C114.834 220.778 114.557 222.76 114.557 222.76Z" fill="#BCBCBC"/>
<path d="M119.51 123.565C119.51 123.565 116.538 126.775 115.072 130.5C113.566 134.225 112.932 136.524 112.773 138.981C112.614 141.478 111.544 218.4 111.544 218.4C111.544 218.4 111.861 222.641 117.291 223.037C122.72 223.434 126.049 223.037 126.049 223.037C126.049 223.037 126.961 226.683 141.624 226.683C156.287 226.683 156.882 221.769 156.882 221.769L154.702 135.929C154.702 135.929 154.227 131.372 152.126 127.488C150.026 123.604 148.797 123.565 148.797 123.565C148.797 123.565 138.889 124.159 131.043 124.397C125.336 124.555 119.51 123.565 119.51 123.565Z" fill="#FF4E13"/>
<path d="M94.226 148.571C93.1956 147.581 92.4427 146.352 92.6012 145.401C92.6012 145.401 102.152 117.184 106.71 108.386C108.097 105.731 110.871 102.204 114.557 99.39C121.413 94.1587 136.274 94.1984 141.585 95.8629C143.328 96.4177 146.301 97.884 148.48 100.183C150.66 102.481 157.12 114.093 160.885 121.425C164.65 128.756 168.811 142.548 167.939 144.886C167.067 147.224 162.153 149.642 162.153 149.642C162.153 149.642 154.742 151.623 153.672 150.751C152.602 149.84 149.352 144.49 145.904 138.069C142.496 131.649 139.524 124.119 139.524 124.119C139.524 124.119 136.551 124.357 129.775 124.674C122.998 124.991 119.629 123.961 119.629 123.961C119.629 123.961 119.074 124.199 117.767 126.458C116.578 128.598 109.999 142.746 107.027 150.157C106.313 151.9 103.222 152.97 99.0213 151.425C94.8205 149.76 95.2961 149.602 94.226 148.571Z" fill="#BCBCBC"/>
<path d="M82.0596 160.381C82.0596 160.381 86.9341 150.434 96.168 156.339C105.442 162.244 100.607 171.478 100.607 171.478L82.0596 160.381Z" fill="#F4F6F7"/>
<path d="M91.6106 151.584C91.6106 151.584 87.2909 150.474 83.4864 153.922C79.6818 157.37 79.3648 158.796 79.3648 158.796L74.0543 155.626L56.2998 189.827L93.2355 211.307H105.679L109.444 176.828L104.174 172.905C104.174 172.905 106.036 167.911 105.957 165.177C105.798 160.5 103.619 157.924 101.954 156.022" fill="#F4F6F7"/>
<path d="M82.2178 160.698C82.2178 160.698 86.8942 150.553 97 156.458C107.225 162.442 101.32 171.399 101.32 171.399L82.2178 160.698Z" fill="#F4F6F7"/>
<path d="M129.933 91.741C129.933 91.741 136.433 91.741 137.859 85.2416C138.929 80.2481 137.463 74.7791 137.463 74.7791C137.463 74.7791 127.08 70.6179 125.415 80.6841C123.87 90.1558 129.933 91.741 129.933 91.741Z" fill="white"/>
<path d="M155.693 152.455C155.336 153.367 155.257 154.793 156.05 156.339C157.278 158.836 159.894 159.668 159.735 162.165C159.498 165.573 159.26 168.743 161.836 168.347C163.659 168.07 163.738 166.524 163.738 166.524C163.738 166.524 164.729 167.554 166.076 167.396C167.662 167.237 167.662 165.414 167.662 165.414C167.662 165.414 168.93 166.524 170.317 166.048C171.783 165.533 171.585 163.75 171.585 163.75C171.585 163.75 171.823 157.964 170.753 155.824C169.683 153.723 166.552 150.791 166.552 150.791C166.552 150.791 163.897 148.571 160.33 149.443C157.001 150.196 156.248 151.147 155.693 152.455Z" fill="white"/>
<path d="M92.2839 146.352L90.3023 149.721C90.3023 149.721 90.3816 149.761 90.3023 150.395C90.2231 151.029 87.9641 155.031 87.9641 155.031C87.9641 155.031 87.3697 156.181 88.7964 157.053C90.2231 157.924 91.6101 156.775 91.6101 156.775C91.6101 156.775 90.9761 158.321 92.6802 159.113C94.3843 159.946 95.3354 158.836 95.3354 158.836C95.3354 158.836 95.058 160.263 96.5243 160.976C97.9907 161.689 99.1003 160.382 99.1003 160.382L101.161 156.418C101.161 156.418 101.993 156.775 102.667 158.043C103.341 159.311 103.618 159.827 103.618 159.827C103.618 159.827 105.481 158.083 105.956 156.022C106.432 153.961 105.956 151.425 105.956 151.425C105.956 151.425 102.588 152.416 98.9418 150.949C95.2165 149.562 92.2839 146.352 92.2839 146.352Z" fill="white"/>
<path d="M131.597 92.3354L131.28 91.1861C131.32 91.1861 135.521 89.9576 136.947 86.4305C138.414 82.7845 136.947 74.7791 136.908 74.6998L138.057 74.462C138.136 74.8187 139.603 82.9033 138.017 86.8664C136.432 90.9483 131.795 92.2562 131.597 92.3354Z" fill="black"/>
<path d="M137.701 85.3999C137.107 85.3999 135.839 85.3206 134.689 84.6865C133.5 84.0525 133.144 82.705 133.104 82.6258L134.253 82.3087C134.253 82.3087 134.531 83.2599 135.244 83.6562C136.433 84.2902 137.899 84.211 137.939 84.211L138.018 85.3999C138.018 85.3999 137.899 85.3999 137.701 85.3999Z" fill="black"/>
<path d="M156.525 151.108C154.623 151.108 153.117 150.514 151.888 149.325C146.498 144.014 137.938 123.486 137.463 122.297C137.185 121.781 133.817 114.965 134.609 108.743L135.798 108.901C135.045 114.846 138.533 121.702 138.572 121.781L138.612 121.821C138.691 122.019 147.529 143.261 152.8 148.453C154.028 149.681 156.406 151.029 162.549 148.413C165.521 147.145 167.186 145.441 167.106 143.697C166.353 130.183 148.638 99.0335 144.477 96.299C140.039 93.3663 135.402 94.0796 135.362 94.0796L135.164 92.8907C135.362 92.8511 140.276 92.0981 145.151 95.3082C147.41 96.8142 152.958 105.454 158.11 115.401C161.003 121.068 167.82 135.137 168.295 143.618C168.414 145.877 166.512 148.017 163.024 149.483C160.409 150.593 158.308 151.108 156.525 151.108Z" fill="black"/>
<path d="M122.324 123.287C114.596 123.287 112.337 117.104 112.258 113.855L113.447 113.815C113.447 114.172 113.843 122.098 122.324 122.098C131.399 122.098 137.82 121.464 137.899 121.464L138.018 122.653C137.978 122.653 131.479 123.287 122.324 123.287Z" fill="black"/>
<path d="M139.603 225.653C128.705 225.653 123.395 223.711 123.395 219.748C123.395 182.456 123.593 150.672 123.593 150.355H124.782C124.782 150.672 124.583 182.456 124.583 219.748C124.583 222.879 129.656 224.464 139.603 224.464C152.166 224.464 154.822 221.69 154.822 219.391C154.822 200.29 153.514 166.802 153.474 166.445L154.663 166.405C154.663 166.723 156.01 200.25 156.01 219.391C156.05 223.553 150.502 225.653 139.603 225.653Z" fill="black"/>
<path d="M124.583 222.244H119.471C112.852 222.244 109.484 220.382 109.484 216.775C109.484 196.841 109.92 141.437 110.95 134.859C111.981 128.28 117.37 121.781 117.608 121.503L118.52 122.256C118.48 122.336 113.09 128.795 112.139 135.057C111.148 141.556 110.673 196.881 110.673 216.775C110.673 219.629 113.645 221.055 119.471 221.055H124.583V222.244Z" fill="black"/>
<path d="M160.092 166.841C158.269 166.841 157.714 165.414 157.675 164.661C157.675 164.542 157.595 161.847 157.635 160.262V160.024C157.675 158.796 157.714 158.36 155.416 156.22C152.523 153.525 153.712 149.919 153.791 149.76L154.901 150.156C154.861 150.275 153.91 153.208 156.208 155.348C158.824 157.766 158.864 158.518 158.824 160.064V160.302C158.784 161.808 158.864 164.542 158.864 164.582C158.864 164.82 159.022 165.612 160.092 165.612C161.202 165.612 161.479 164.661 161.558 164.463V159.945C161.558 159.43 161.44 157.964 161.123 157.33L162.193 156.814C162.668 157.805 162.747 159.747 162.747 159.945V164.582V164.622C162.589 165.414 161.876 166.841 160.092 166.841Z" fill="black"/>
<path d="M163.976 165.533C162.113 165.533 161.519 164.106 161.479 163.353C161.479 163.235 161.4 160.54 161.439 158.954L162.628 158.994C162.549 160.5 162.668 163.235 162.668 163.274C162.668 163.433 162.826 164.305 163.976 164.305C165.125 164.305 165.442 163.393 165.482 163.155V158.637C165.482 158.122 165.363 156.656 165.006 156.022L166.076 155.467C166.591 156.458 166.671 158.4 166.671 158.598V163.235V163.274C166.512 164.146 165.799 165.533 163.976 165.533Z" fill="black"/>
<path d="M167.899 164.345C166.076 164.345 165.521 162.918 165.482 162.165C165.482 162.046 165.402 159.351 165.442 157.766L166.631 157.806C166.591 159.312 166.671 162.046 166.671 162.086C166.671 162.324 166.829 163.116 167.899 163.116C169.009 163.116 169.286 162.165 169.366 161.967V157.449C169.366 156.934 169.247 155.467 168.93 154.833L168.89 154.794C168.89 154.794 168.137 152.812 167.186 151.861C166.155 150.791 164.848 149.642 164.848 149.642L165.64 148.77C165.68 148.81 166.988 149.959 168.018 151.068C169.088 152.178 169.881 154.12 169.96 154.397C170.436 155.388 170.515 157.29 170.515 157.489V162.125V162.165C170.396 162.918 169.683 164.345 167.899 164.345Z" fill="black"/>
<path d="M132.945 230.805C127.001 230.805 125.376 230.805 125.376 227.515C125.376 226.009 125.455 223.077 125.455 223.037L126.644 223.077C126.644 223.116 126.565 226.049 126.565 227.515C126.565 229.537 126.803 229.616 132.945 229.616C150.66 229.616 155.931 228.585 157.16 228.268C157.279 227.397 157.279 224.821 154.584 222.086L155.416 221.254C159.181 225.019 158.309 228.704 158.269 228.863L158.19 229.14L157.913 229.259C157.754 229.338 153.989 230.805 132.945 230.805Z" fill="black"/>
<path d="M117.331 228.585C113.645 228.585 111.386 227.991 111.386 225.058V220.144H112.575V225.058C112.575 226.405 112.932 227.396 117.331 227.396C121.492 227.396 125.455 227.039 125.495 227.039L125.614 228.228C125.574 228.228 121.571 228.585 117.331 228.585Z" fill="black"/>
<path d="M90.1047 158.122C89.6687 158.122 89.1932 158.003 88.678 157.726C88.0042 157.369 87.5683 156.854 87.4098 156.259C87.1324 155.269 87.6476 154.397 87.6872 154.278L89.2724 151.345C89.8272 150.394 91.3332 148.928 93.0373 149.839C93.711 150.196 94.147 150.711 94.3055 151.345C94.6225 152.534 93.9488 153.683 93.8696 153.802L92.2447 156.854C91.9277 157.409 91.1747 158.122 90.1047 158.122ZM91.9277 150.751C91.0162 150.751 90.3424 151.9 90.3028 151.94L88.7572 154.872C88.7572 154.912 88.4402 155.427 88.5987 155.942C88.678 156.259 88.9157 156.497 89.2724 156.695C90.4613 157.329 91.0954 156.497 91.2143 156.299L92.8392 153.248C92.9977 153.01 93.3147 152.257 93.1562 151.662C93.0769 151.345 92.8392 151.068 92.4825 150.87C92.2447 150.79 92.0862 150.751 91.9277 150.751Z" fill="black"/>
<path d="M93.7106 160.104C93.2747 160.104 92.7991 159.985 92.2839 159.707C91.6102 159.351 91.1743 158.836 91.0157 158.241C90.7383 157.25 91.2535 156.378 91.2931 156.26L92.8784 153.327C92.8784 153.287 93.235 152.653 93.8295 152.138C94.7014 151.345 95.6525 151.187 96.564 151.662C98.5059 152.693 98.0303 154.793 97.5151 155.784L95.8507 158.836C95.5336 159.39 94.7806 160.104 93.7106 160.104ZM95.5336 152.614C94.6617 152.614 93.9484 153.842 93.9484 153.921L92.3632 156.854C92.3632 156.894 92.0461 157.409 92.2047 157.924C92.2839 158.241 92.5217 158.479 92.8784 158.677C94.0673 159.311 94.7014 158.479 94.8203 158.281L96.4451 155.229C96.5244 155.071 97.317 153.446 96.0092 152.732C95.8507 152.653 95.6921 152.614 95.5336 152.614Z" fill="black"/>
<path d="M97.4362 161.966C97.0003 161.966 96.5247 161.847 96.0095 161.569C95.3358 161.213 94.8998 160.697 94.7413 160.103C94.4639 159.112 94.9791 158.24 95.0187 158.122L96.604 155.189C97.1588 154.198 98.6251 152.534 100.329 153.445C100.963 153.802 101.399 154.277 101.597 154.911C101.994 156.18 101.241 157.567 101.241 157.606L99.5762 160.658C99.2592 161.213 98.5062 161.966 97.4362 161.966ZM99.3385 154.357C98.427 154.357 97.674 155.744 97.674 155.744L96.0888 158.676C96.0888 158.716 95.7717 159.231 95.9302 159.746C96.0095 160.063 96.2473 160.301 96.604 160.499C97.8325 161.173 98.4666 160.222 98.5459 160.103L100.171 157.051C100.29 156.853 101.122 155.189 99.7744 154.475C99.6159 154.396 99.4574 154.357 99.3385 154.357Z" fill="black"/>
<path d="M103.856 160.38L103.301 159.31C103.896 158.993 104.53 158.003 105.164 156.338C105.759 154.753 105.481 153.049 105.243 152.177C104.094 152.454 101.439 152.771 98.4269 151.503C93.1956 149.244 90.6197 145.995 91.5312 142.745C94.3846 132.639 105.045 107.394 105.164 107.157L106.274 107.632C106.155 107.87 95.5338 133.075 92.6804 143.102C92.403 144.092 92.0464 147.501 98.9024 150.433C102.43 151.939 105.441 150.948 105.441 150.909L105.996 150.711L106.194 151.265C106.234 151.384 107.264 154.158 106.234 156.774C105.521 158.795 104.728 159.945 103.856 160.38Z" fill="black"/>
<path d="M81.2666 159.707L80.3154 158.994C80.7117 158.479 80.9891 158.083 81.2666 157.686C82.1781 156.418 82.6933 155.705 84.1992 154.476C86.4185 152.653 88.7567 152.97 88.8756 152.97L88.7171 154.159C88.6378 154.159 86.7752 153.921 84.9918 155.388C83.6048 156.537 83.1688 157.171 82.297 158.4C81.9403 158.756 81.6232 159.192 81.2666 159.707Z" fill="black"/>
<path d="M100.131 171.359L99.0609 170.804C99.1005 170.764 101.082 166.841 100.805 164.027C100.527 161.015 98.9816 159.668 98.9023 159.588L99.6553 158.677C99.7346 158.756 101.637 160.341 101.954 163.908C102.311 167.118 100.25 171.2 100.131 171.359Z" fill="black"/>
<path d="M91.8084 210.752L54.0801 188.915L72.429 153.644L108.77 175.441L91.8084 210.752ZM55.6653 188.479L91.2932 209.087L107.225 175.916L72.9046 155.308L55.6653 188.479Z" fill="black"/>
<path d="M78.4933 157.963L77.4629 157.369C77.5422 157.21 79.6426 153.723 82.7734 151.464C87.0138 148.452 91.1354 150.037 91.3336 150.116L90.8976 151.226C90.7391 151.186 87.1724 149.839 83.4471 152.455C80.5144 154.555 78.4933 157.924 78.4933 157.963Z" fill="black"/>
<path d="M91.9374 145.744L89.4731 150.088L90.5073 150.674L92.9715 146.331L91.9374 145.744Z" fill="black"/>
<path d="M104.768 210.791H91.8086V209.602H103.698L107.621 175.242L108.81 175.361L104.768 210.791Z" fill="black"/>
<path d="M102.985 172.627L101.914 172.072C101.914 172.032 103.856 168.268 103.896 163.987C103.975 159.866 100.726 156.894 100.726 156.854L101.518 155.982C101.677 156.101 105.164 159.351 105.085 163.987C105.045 168.545 103.064 172.468 102.985 172.627Z" fill="black"/>
<path d="M63.8404 105.495L63.292 106.55L154.543 153.991L155.091 152.936L63.8404 105.495Z" fill="black"/>
<path d="M170.464 160.669L169.93 161.731L330.159 242.339L330.694 241.277L170.464 160.669Z" fill="black"/>
<path d="M66.753 117.82L66.2188 118.882L302.102 237.549L302.636 236.487L66.753 117.82Z" fill="black"/>
<path d="M133.579 81.9134C131.954 84.8857 132.39 88.5713 134.253 96.5371C135.244 100.698 137.185 109.853 130.607 113.935C123.671 118.215 114.319 118.928 107.74 109.853C106.71 108.149 104.966 105.295 104.728 100.659C104.49 96.2597 105.798 91.9399 107.74 88.3335C109.722 84.7272 110.157 84.6479 109.801 80.4867C109.444 76.3255 109.801 74.7006 111.901 70.7376C114.002 66.7745 117.925 67.0519 117.925 67.0519C117.925 67.0519 118.559 63.6833 128.07 63.6833C137.582 63.6833 141.505 68.2409 141.584 71.015C141.624 73.7891 139.088 76.6029 139.088 76.6029" fill="#BCBCBC"/>
<path d="M118.242 115.323C114.596 115.323 111.386 114.253 108.85 112.152C104.332 108.427 101.994 101.571 102.628 93.8429C102.905 90.4347 104.332 88.1361 105.56 86.1149C106.829 84.0145 107.938 82.2311 107.74 79.6155C107.701 79.1399 107.621 78.6248 107.542 78.0699C107.106 75.1373 106.591 71.4913 111.069 66.8941C113.566 64.3578 115.785 63.7633 116.895 63.6048C118.044 62.614 119.55 61.8214 121.413 61.4647C126.208 60.5136 133.54 61.0684 137.622 64.0011C139.326 65.19 140.277 66.696 140.515 68.4001C140.99 72.0857 137.899 75.0184 135.204 77.5944C133.341 79.3381 131.598 81.0026 131.4 82.5085C130.924 85.7979 131.677 89.8006 132.39 93.6051C134.015 102.245 135.719 111.201 124.464 114.332C122.285 115.045 120.184 115.323 118.242 115.323ZM115.349 65.3089C114.398 65.7052 113.209 66.4582 111.941 67.7263C107.859 71.8876 108.335 75.058 108.731 77.9114C108.81 78.4662 108.889 79.0211 108.929 79.5363C109.167 82.5482 107.899 84.5693 106.551 86.749C105.323 88.7702 104.055 90.831 103.777 93.9618C103.183 101.333 105.362 107.793 109.603 111.241C113.209 114.213 118.242 114.926 124.187 113.262C134.372 110.408 132.866 102.403 131.241 93.8825C130.488 89.9591 129.735 85.8771 130.211 82.3897C130.488 80.4478 132.39 78.6644 134.412 76.7621C137.067 74.2654 139.801 71.6498 139.365 68.5586C139.167 67.2112 138.375 65.9826 136.988 64.9918C134.134 62.9311 127.793 61.4251 121.69 62.6536C119.986 63.0103 118.639 63.7237 117.608 64.6352V64.7937C117.608 64.7937 117.529 64.7937 117.45 64.7937C114.794 67.2112 114.16 70.659 114.121 70.8572L112.932 70.659C112.892 70.6194 113.368 67.8452 115.349 65.3089Z" fill="black"/>
<path d="M303.792 86.233C303.792 74.1061 311.639 64.2777 321.348 64.2777C331.058 64.2777 338.905 74.1061 338.905 86.233L344.057 86.5897C344.057 70.896 333.872 58.2142 321.348 58.2142C308.825 58.2142 298.64 70.9356 298.64 86.5897L303.792 86.233Z" fill="#F4F6F7"/>
<path d="M355.193 127.766L352.696 94.0003C352.696 94.0003 352.419 90.711 350.002 88.7295C347.465 86.6291 343.78 86.6687 343.78 86.6687C343.78 86.6687 340.688 86.2327 337.082 89.3239C334.863 91.2262 334.427 94.5552 334.427 94.5552L333.238 135.295L355.193 127.766Z" fill="#F4F6F7"/>
<path d="M344.216 86.5496H300.86C300.86 86.5496 297.055 86.3911 292.498 88.7293C288.02 91.0675 287.306 94.0002 287.306 94.0002L284.136 130.54L333.198 135.374" fill="#F4F6F7"/>
<path d="M331.296 134.502L281.679 129.588L284.889 92.3748C284.928 92.2559 285.721 89.1251 290.397 86.7076C295.034 84.2901 298.918 84.4487 299.077 84.4487H342.393V85.6376H299.037C298.958 85.6376 295.272 85.5187 290.952 87.7776C287.068 89.7988 286.197 92.2955 286.078 92.6522L282.987 128.557L331.455 133.353L331.296 134.502Z" fill="black"/>
<path d="M331.256 134.502L332.445 92.8507C332.445 92.6922 332.96 89.2443 335.298 87.2232C338.865 84.1716 341.956 84.3698 342.392 84.449C342.828 84.449 346.395 84.5283 348.971 86.6287C351.586 88.7688 351.864 92.177 351.903 92.2959L354.44 126.497L331.256 134.502ZM333.634 92.9696L332.484 132.798L353.172 125.665L350.714 92.3751C350.714 92.3355 350.437 89.3236 348.218 87.5402C345.88 85.6379 342.432 85.6379 342.392 85.6379H342.352H342.313C342.273 85.6379 339.42 85.3209 336.091 88.1347C334.189 89.7595 333.673 92.6922 333.634 92.9696Z" fill="black"/>
<path d="M285.311 94.9264L284.578 95.8628L300.622 108.413L301.354 107.476L285.311 94.9264Z" fill="black"/>
<path d="M332.368 96.2329L307.177 107.369L307.657 108.456L332.848 97.3203L332.368 96.2329Z" fill="black"/>
<path d="M306.765 116.907L298.759 116.352L301.097 102.679H308.469L306.765 116.907ZM300.146 115.242L305.695 115.638L307.121 103.868H302.088L300.146 115.242Z" fill="black"/>
<path d="M342.987 85.0437H341.798C341.798 69.7066 331.89 57.2626 319.684 57.2626C307.478 57.2626 297.57 69.7463 297.57 85.0437H296.381C296.381 69.0726 306.844 56.0737 319.684 56.0737C332.524 56.0737 342.987 69.0726 342.987 85.0437Z" fill="black"/>
<path d="M337.835 84.6867H336.646C336.646 72.9165 329.037 63.3259 319.684 63.3259C310.332 63.3259 302.723 72.9165 302.723 84.6867H301.534C301.534 72.2427 309.658 62.137 319.684 62.137C329.711 62.137 337.835 72.2824 337.835 84.6867Z" fill="black"/>
</svg>
